<svg xmlns="http://www.w3.org/2000/svg" version="1.1" xmlns:xlink="http://www.w3.org/1999/xlink" xmlns:svgjs="http://svgjs.dev/svgjs" width="2000" height="292" viewBox="0 0 2000 292"><g transform="matrix(1,0,0,1,10.55894491365541,-0.6367999645483167)"><svg viewBox="0 0 396 58" data-background-color="#ffffff" preserveAspectRatio="xMidYMid meet" height="292" width="2000" xmlns="http://www.w3.org/2000/svg" xmlns:xlink="http://www.w3.org/1999/xlink"><g id="tight-bounds" transform="matrix(1,0,0,1,0.2580520653635858,0.12648766419110302)"><svg viewBox="0 0 395.52 57.747024671617794" height="57.747024671617794" width="395.52"><g><svg viewBox="0 0 514.2038619799963 75.0752" height="57.747024671617794" width="395.52"><g><svg viewBox="0 0 514.2038619799963 75.0752" height="75.0752" width="514.2038619799963"><g id="textblocktransform"><svg viewBox="0 0 514.2038619799963 75.0752" height="75.0752" width="514.2038619799963" id="textblock"><g><svg viewBox="0 0 514.2038619799963 75.0752" height="75.0752" width="514.2038619799963"><g><svg><g></g><g></g></svg></g><g><svg><g></g><g><svg></svg></g></svg></g><g id="text-0"><svg viewBox="0 0 514.2038619799963 75.0752" height="75.0752" width="514.2038619799963"><g><svg xmlns="http://www.w3.org/2000/svg" xmlns:xlink="http://www.w3.org/1999/xlink" version="1.1" x="0" y="0" viewBox="17.157 24.612 69.17600111024117 49.61200000000001" style="enable-background:new 0 0 100 100;" xml:space="preserve" height="75.0752" width="104.6803619799963" class="icon-dxe-0" data-fill-palette-color="accent" id="dxe-0"><g fill="#c56e33" data-fill-palette-color="accent"><path d="M74.31 50.046H50.974C50.146 50.046 49.475 50.717 49.475 51.545V66.575C49.475 67.403 50.146 68.074 50.974 68.074H74.31C75.138 68.074 75.809 67.403 75.809 66.575V51.545C75.809 50.717 75.138 50.046 74.31 50.046M72.811 65.077H52.473V53.045H72.81z" fill="#000000" data-fill-palette-color="accent"></path><path d="M76.496 24.612H26.997L23.998 25.499 17.586 32.044C17.311 32.324 17.157 32.701 17.157 33.094V38.8A8.12 8.12 0 0 0 21.06 45.735V72.725C21.06 73.553 21.731 74.224 22.559 74.224H30.121L30.143 74.222 30.165 74.224C30.993 74.224 31.664 73.553 31.664 72.725V53.045H42.412V72.724C42.412 73.552 43.083 74.223 43.911 74.223H80.625C81.453 74.223 82.124 73.552 82.124 72.724V45.91A8.12 8.12 0 0 0 86.333 38.799V33.093A1.5 1.5 0 0 0 85.906 32.043L79.494 25.498zM79.128 71.224H45.412V51.546C45.412 50.718 44.741 50.047 43.913 50.047H30.166C29.338 50.047 28.667 50.718 28.667 51.546V71.225H24.061V46.825A8.11 8.11 0 0 0 31.894 43.494C33.367 45.564 35.784 46.916 38.512 46.916S43.657 45.564 45.13 43.494A8.11 8.11 0 0 0 58.366 43.494 8.12 8.12 0 0 0 64.984 46.916 8.11 8.11 0 0 0 71.602 43.494 8.11 8.11 0 0 0 79.13 46.864V71.225zM83.336 38.798C83.336 41.62 81.04 43.916 78.218 43.916S73.1 41.62 73.1 38.798A1.499 1.499 0 1 0 70.102 38.798C70.102 41.62 67.806 43.916 64.984 43.916S59.866 41.62 59.866 38.798A1.499 1.499 0 1 0 56.868 38.798C56.868 41.62 54.572 43.916 51.749 43.916S46.631 41.62 46.631 38.798A1.499 1.499 0 1 0 43.633 38.798 5.124 5.124 0 0 1 38.515 43.916 5.124 5.124 0 0 1 33.397 38.798 1.499 1.499 0 1 0 30.399 38.798C30.399 41.62 28.103 43.916 25.281 43.916S20.163 41.62 20.163 38.798V33.704L26.134 27.61H77.37L83.341 33.704z" fill="#000000" data-fill-palette-color="accent"></path></g></svg></g><g transform="matrix(1,0,0,1,122.40516197999631,0)"><svg width="391.7987" viewBox="2.25 -35 242.13 46.4" height="75.0752" data-palette-color="#c56e33"><path d="M12-35L21.15-35 21.15-30.6 12.3-30.6Q7.25-30.6 7.25-26.5L7.25-26.5Q7.25-24.3 9.47-22.78 11.7-21.25 15.5-19.85L15.5-19.85Q17.2-19.2 18.4-18.53 19.6-17.85 20.8-16.75 22-15.65 22.6-13.93 23.2-12.2 23.2-9.95L23.2-9.95Q23.2-7.45 22.15-5.48 21.1-3.5 19.45-2.38 17.8-1.25 16.07-0.68 14.35-0.1 12.7-0.05L12.7-0.05Q12 0 10.7 0L10.7 0 2.9 0 2.9-4.4 10.55-4.4Q13.95-4.4 16.1-5.83 18.25-7.25 18.25-10L18.25-10Q18.25-11.35 17.65-12.38 17.05-13.4 15.93-14.15 14.8-14.9 13.63-15.45 12.45-16 10.8-16.6L10.8-16.6Q10.35-16.75 10.1-16.85L10.1-16.85Q2.25-19.85 2.25-26.65L2.25-26.65Q2.25-30.85 4.95-32.93 7.65-35 12-35L12-35ZM28.2-35L32.6-35 32.6-24 36.85-24Q42.4-24 44.8-22.35L44.8-22.35Q46.95-20.9 47.52-18.88 48.1-16.85 48.1-13.55L48.1-13.55 48.1 0 43.7 0 43.7-13.5Q43.7-14.4 43.65-15.03 43.6-15.65 43.3-16.63 43-17.6 42.45-18.23 41.9-18.85 40.85-19.33 39.8-19.8 38.3-19.8L38.3-19.8 32.6-19.8 32.6 0 28.2 0 28.2-35ZM56.85-20.85L56.85-20.85Q60.35-24.5 65.59-24.5L65.59-24.5Q68.15-24.5 70.37-23.53 72.59-22.55 74.27-20.85 75.95-19.15 76.9-16.88 77.84-14.6 77.84-12L77.84-12Q77.84-9.4 76.92-7.13 76-4.85 74.34-3.15 72.7-1.45 70.45-0.48 68.2 0.5 65.59 0.5L65.59 0.5Q62.95 0.5 60.72-0.48 58.5-1.45 56.85-3.15 55.2-4.85 54.27-7.13 53.35-9.4 53.35-12L53.35-12Q53.35-17.3 56.85-20.85ZM65.59-20.3L65.59-20.3Q62.1-20.3 59.97-18 57.85-15.7 57.85-12 57.85-8.3 59.97-6 62.1-3.7 65.59-3.7L65.59-3.7Q69.15-3.7 71.25-6.03 73.34-8.35 73.34-12 73.34-15.65 71.25-17.98 69.15-20.3 65.59-20.3ZM87.59 11.4L83.09 11.4 83.09-12Q83.09-14.6 84.04-16.9 84.99-19.2 86.64-20.88 88.29-22.55 90.54-23.53 92.79-24.5 95.34-24.5L95.34-24.5Q97.89-24.5 100.12-23.53 102.34-22.55 104.02-20.85 105.69-19.15 106.64-16.88 107.59-14.6 107.59-12L107.59-12Q107.59-9.4 106.67-7.13 105.74-4.85 104.09-3.15 102.44-1.45 100.19-0.48 97.94 0.5 95.34 0.5L95.34 0.5Q92.14 0.5 89.39-1L89.39-1 89.39-5.5Q91.84-3.7 95.19-3.7L95.19-3.7Q96.99-3.7 98.47-4.33 99.94-4.95 100.97-6.05 101.99-7.15 102.54-8.68 103.09-10.2 103.09-12L103.09-12Q103.09-13.8 102.54-15.33 101.99-16.85 100.99-17.95 99.99-19.05 98.57-19.68 97.14-20.3 95.34-20.3L95.34-20.3Q93.59-20.3 92.17-19.7 90.74-19.1 89.72-18 88.69-16.9 88.14-15.38 87.59-13.85 87.59-12L87.59-12 87.59 11.4ZM117.79-26L117.79-26 117.79-19.3 127.09-19.3 127.09-14.9 117.79-14.9 117.79 0 113.09 0 113.09-26.65Q113.09-30.35 115.44-32.6L115.44-32.6Q117.04-34.1 119.04-34.55 121.04-35 123.94-35L123.94-35 129.24-35 129.24-30.6 123.29-30.6Q117.79-30.6 117.79-26ZM153.14-24L153.14 0 144.49 0Q138.94 0 136.54-1.65L136.54-1.65Q134.39-3.1 133.81-5.13 133.24-7.15 133.24-10.45L133.24-10.45 133.24-24 137.64-24 137.64-10.5Q137.64-9.6 137.69-8.97 137.74-8.35 138.04-7.38 138.34-6.4 138.89-5.78 139.44-5.15 140.49-4.67 141.54-4.2 143.04-4.2L143.04-4.2 148.74-4.2 148.74-24 153.14-24ZM167.19-24L176.04-24 176.04-19.8 167.19-19.8Q165.74-19.8 164.69-19.25 163.64-18.7 163.64-17.7L163.64-17.7Q163.64-17.1 163.89-16.63 164.14-16.15 164.46-15.85 164.79-15.55 165.46-15.23 166.14-14.9 166.51-14.78 166.89-14.65 169.69-13.75 172.49-12.85 173.84-12.25 175.19-11.65 175.91-10.63 176.64-9.6 176.84-8.63 177.04-7.65 177.04-6.7L177.04-6.7Q177.04 0 167.84 0L167.84 0 159.19 0 159.19-4.2 167.84-4.2Q172.54-4.2 172.54-6.7L172.54-6.7Q172.54-7.9 171.16-8.7 169.79-9.5 167.81-10.05 165.84-10.6 163.86-11.33 161.89-12.05 160.51-13.68 159.14-15.3 159.14-17.7L159.14-17.7Q159.14-20.75 161.49-22.38 163.84-24 167.19-24L167.19-24ZM188.53-24L188.53 0 184.13 0 184.13-19.8 180.03-19.8 182.03-24 188.53-24ZM183.93-29L183.93-29Q183.28-29.85 183.28-30.85 183.28-31.85 183.93-32.68 184.58-33.5 185.93-33.5 187.28-33.5 187.93-32.68 188.58-31.85 188.58-30.85 188.58-29.85 187.93-29.03 187.28-28.2 185.93-28.2 184.58-28.2 183.93-29ZM197.98-20.85L197.98-20.85Q201.48-24.5 206.73-24.5L206.73-24.5Q209.28-24.5 211.51-23.53 213.73-22.55 215.41-20.85 217.08-19.15 218.03-16.88 218.98-14.6 218.98-12L218.98-12Q218.98-9.4 218.06-7.13 217.13-4.85 215.48-3.15 213.83-1.45 211.58-0.48 209.33 0.5 206.73 0.5L206.73 0.5Q204.08 0.5 201.86-0.48 199.63-1.45 197.98-3.15 196.33-4.85 195.41-7.13 194.48-9.4 194.48-12L194.48-12Q194.48-17.3 197.98-20.85ZM206.73-20.3L206.73-20.3Q203.23-20.3 201.11-18 198.98-15.7 198.98-12 198.98-8.3 201.11-6 203.23-3.7 206.73-3.7L206.73-3.7Q210.28-3.7 212.38-6.03 214.48-8.35 214.48-12 214.48-15.65 212.38-17.98 210.28-20.3 206.73-20.3ZM224.48 0L224.48-24 233.13-24Q238.68-24 241.08-22.35L241.08-22.35Q243.23-20.9 243.8-18.88 244.38-16.85 244.38-13.55L244.38-13.55 244.38 0 239.98 0 239.98-13.5Q239.98-14.4 239.93-15.03 239.88-15.65 239.58-16.63 239.28-17.6 238.73-18.23 238.18-18.85 237.13-19.33 236.08-19.8 234.58-19.8L234.58-19.8 228.88-19.8 228.88 0 224.48 0Z" opacity="1" transform="matrix(1,0,0,1,0,0)" fill="#000000" class="wordmark-text-0" data-fill-palette-color="primary"></path></svg></g></svg></g></svg></g></svg></g></svg></g></svg></g><defs></defs></svg><rect width="395.52" height="57.747024671617794" fill="none" stroke="none" visibility="hidden"></rect></g></svg></g></svg>